<svg xmlns="http://www.w3.org/2000/svg" xmlns:xlink="http://www.w3.org/1999/xlink" style="margin:auto;background: #1e232b70;display:block;z-index:1;position:relative;background-color: #5ca2d2;" width="1632" height="649" preserveAspectRatio="xMidYMid" viewBox="0 0 1632 649"><g transform="translate(816,324.5) scale(1,1) translate(-816,-324.5)"><defs><path id="path-ihlnfzrxgs-1" d="M-35 -35L35 -35L35 35L-35 35Z" fill="none" stroke="inherit" stroke-width="17.333333333333332" transform="scale(0.15000000000000002)"/><path id="path-ihlnfzrxgs-2" d="M0 -37A37 37 0 0 1 0 37A37 37 0 0 1 0 -37" fill="none" stroke="inherit" stroke-width="17.333333333333332" transform="scale(0.15000000000000002)"/><path id="path-ihlnfzrxgs-3" d="M0 -34.641L40 34.641L-40 34.641Z" fill="none" stroke="inherit" stroke-width="17.333333333333332" transform="scale(0.15000000000000002)"/></defs><path id="path0" d="M 97.4581926926598 12.896906586036147 c 0 56.191669386143154 -13.749025488098855 16.14016035559431 -29.889185843693163 16.14016035559431 S 37.67982100527346 69.0885759721793 37.67982100527346 12.896906586036147 s 13.749025488098855 -16.14016035559431 29.889185843693163 -16.14016035559431 S 97.4581926926598 -43.29476280010701 97.4581926926598 12.896906586036147 z" fill="none" stroke="none"/><use xlink:href="#path-ihlnfzrxgs-1" x="0" y="0" stroke="#0a82ee"><animateMotion begin="-2.7624272178641824s" dur="23.082979595785815s" keyPoints="0;1" keyTimes="0;1" repeatCount="indefinite" calcMode="linear"><mpath xlink:href="#path0"/></animateMotion></use><path id="path1" d="M 129.0696283506856 150.6614159133117 c 0 46.2475460326642 -11.31588892288592 13.28386960512695 -24.59975852801287 13.28386960512695 S 79.87011129465986 196.9089619459759 79.87011129465986 150.6614159133117 s 11.31588892288592 -13.28386960512695 24.59975852801287 -13.28386960512695 S 129.0696283506856 104.41386988064752 129.0696283506856 150.6614159133117 z" fill="none" stroke="none"/><use xlink:href="#path-ihlnfzrxgs-3" x="0" y="0" stroke="#0a82ee"><animateMotion begin="-2.812103025673432s" dur="25.425301738051203s" keyPoints="1;0" keyTimes="0;1" repeatCount="indefinite" calcMode="linear"><mpath xlink:href="#path1"/></animateMotion></use><path id="path2" d="M 248.11651856084296 435.48699714353603 c 0 62.629553798340986 -15.324252525125985 17.98933992080007 -33.313592445926055 17.98933992080007 S 181.48933366899087 498.116550941877 181.48933366899087 435.48699714353603 s 15.324252525125985 -17.98933992080007 33.313592445926055 -17.98933992080007 S 248.11651856084296 372.85744334519507 248.11651856084296 435.48699714353603 z" fill="none" stroke="none"/><use xlink:href="#path-ihlnfzrxgs-2" x="0" y="0" stroke="#0a82ee"><animateMotion begin="-4.826061897392287s" dur="25.580712760595464s" keyPoints="1;0" keyTimes="0;1" repeatCount="indefinite" calcMode="linear"><mpath xlink:href="#path2"/></animateMotion></use><path id="path3" d="M 340.5774297671894 569.1859920704891 c 0 49.239948577502275 -12.048072524282471 14.14338948502725 -26.19146200930972 14.14338948502725 S 288.19450574857 618.4259406479914 288.19450574857 569.1859920704891 s 12.048072524282471 -14.14338948502725 26.19146200930972 -14.14338948502725 S 340.5774297671894 519.9460434929867 340.5774297671894 569.1859920704891 z" fill="none" stroke="none"/><use xlink:href="#path-ihlnfzrxgs-2" x="0" y="0" stroke="#bbddff"><animateMotion begin="-5.424666631419458s" dur="26.404201957115127s" keyPoints="1;0" keyTimes="0;1" repeatCount="indefinite" calcMode="linear"><mpath xlink:href="#path3"/></animateMotion></use><path id="path4" d="M 472.294358265452 42.58425323985243 c 0 44.36155050453447 -10.85442193196056 12.742147485345008 -23.596569417305567 12.742147485345008 S 425.1012194308409 86.9458037443869 425.1012194308409 42.58425323985243 s 10.85442193196056 -12.742147485345008 23.596569417305567 -12.742147485345008 S 472.294358265452 -1.7772972646820406 472.294358265452 42.58425323985243 z" fill="none" stroke="none"/><use xlink:href="#path-ihlnfzrxgs-1" x="0" y="0" stroke="#0a82ee"><animateMotion begin="-3.842527961054853s" dur="25.551542575146716s" keyPoints="0;1" keyTimes="0;1" repeatCount="indefinite" calcMode="linear"><mpath xlink:href="#path4"/></animateMotion></use><path id="path5" d="M 485.44671788958715 219.9671649722269 c 0 27.535386114301154 -6.737381708818367 7.909100266873736 -14.646481975692103 7.909100266873736 S 456.15375393820295 247.50255108652806 456.15375393820295 219.9671649722269 s 6.737381708818367 -7.909100266873736 14.646481975692103 -7.909100266873736 S 485.44671788958715 192.43177885792574 485.44671788958715 219.9671649722269 z" fill="none" stroke="none"/><use xlink:href="#path-ihlnfzrxgs-2" x="0" y="0" stroke="#c3e31b"><animateMotion begin="-3.646295510252034s" dur="21.750766923678274s" keyPoints="1;0" keyTimes="0;1" repeatCount="indefinite" calcMode="linear"><mpath xlink:href="#path5"/></animateMotion></use><path id="path6" d="M 646.254701608963 272.10606180207844 c 0 55.29157695105353 -13.52879010504501 15.881623166791972 -29.41041327183698 15.881623166791972 S 587.433875065289 327.39763875313196 587.433875065289 272.10606180207844 s 13.52879010504501 -15.881623166791972 29.41041327183698 -15.881623166791972 S 646.254701608963 216.81448485102493 646.254701608963 272.10606180207844 z" fill="none" stroke="none"/><use xlink:href="#path-ihlnfzrxgs-2" x="0" y="0" stroke="#c3e31b"><animateMotion begin="-0.24442119019328884s" dur="25.440721744235088s" keyPoints="0;1" keyTimes="0;1" repeatCount="indefinite" calcMode="linear"><mpath xlink:href="#path6"/></animateMotion></use><path id="path7" d="M 675.0345438304217 464.0499910458103 c 0 62.399163491736516 -15.267880428829146 17.923163981669 -33.19104441049815 17.923163981669 S 608.6524550094254 526.4491545375469 608.6524550094254 464.0499910458103 s 15.267880428829146 -17.923163981669 33.19104441049815 -17.923163981669 S 675.0345438304217 401.65082755407377 675.0345438304217 464.0499910458103 z" fill="none" stroke="none"/><use xlink:href="#path-ihlnfzrxgs-1" x="0" y="0" stroke="#0a82ee"><animateMotion begin="-2.648793904778991s" dur="17.137101346216497s" keyPoints="0;1" keyTimes="0;1" repeatCount="indefinite" calcMode="linear"><mpath xlink:href="#path7"/></animateMotion></use><path id="path8" d="M 774.6619926523824 558.944574829806 c 0 21.97577189195276 -5.37705056930759 6.312189798752389 -11.689240368059979 6.312189798752389 S 751.2835119162626 580.9203467217587 751.2835119162626 558.944574829806 s 5.37705056930759 -6.312189798752389 11.689240368059979 -6.312189798752389 S 774.6619926523824 536.9688029378533 774.6619926523824 558.944574829806 z" fill="none" stroke="none"/><use xlink:href="#path-ihlnfzrxgs-1" x="0" y="0" stroke="#0a82ee"><animateMotion begin="-6.061168168744105s" dur="23.973430338627363s" keyPoints="0;1" keyTimes="0;1" repeatCount="indefinite" calcMode="linear"><mpath xlink:href="#path8"/></animateMotion></use><path id="path9" d="M 930.0272736869376 413.05940694901574 c 0 48.00765488226761 -11.746553854171859 13.789432785332185 -25.535986639504046 13.789432785332185 S 878.9553004079296 461.06706183128335 878.9553004079296 413.05940694901574 s 11.746553854171859 -13.789432785332185 25.535986639504046 -13.789432785332185 S 930.0272736869376 365.0517520667481 930.0272736869376 413.05940694901574 z" fill="none" stroke="none"/><use xlink:href="#path-ihlnfzrxgs-1" x="0" y="0" stroke="#0a82ee"><animateMotion begin="-3.138461344433034s" dur="17.83008795229597s" keyPoints="0;1" keyTimes="0;1" repeatCount="indefinite" calcMode="linear"><mpath xlink:href="#path9"/></animateMotion></use><path id="path10" d="M 939.6695491908175 474.92348124225555 c 0 52.57545209866931 -12.86420636456802 15.10145964536246 -27.96566600993048 15.10145964536246 S 883.7382171709565 527.4989333409249 883.7382171709565 474.92348124225555 s 12.86420636456802 -15.10145964536246 27.96566600993048 -15.10145964536246 S 939.6695491908175 422.34802914358625 939.6695491908175 474.92348124225555 z" fill="none" stroke="none"/><use xlink:href="#path-ihlnfzrxgs-3" x="0" y="0" stroke="#c3e31b"><animateMotion begin="-4.8328916601923995s" dur="25.782394044529063s" keyPoints="1;0" keyTimes="0;1" repeatCount="indefinite" calcMode="linear"><mpath xlink:href="#path10"/></animateMotion></use><path id="path11" d="M 1050.6748809303076 90.52222517402797 c 0 55.50194673891128 -13.580263563776162 15.94204853138941 -29.522312095165574 15.94204853138941 S 991.6302567399764 146.02417191293924 991.6302567399764 90.52222517402797 s 13.580263563776162 -15.94204853138941 29.522312095165574 -15.94204853138941 S 1050.6748809303076 35.02027843511669 1050.6748809303076 90.52222517402797 z" fill="none" stroke="none"/><use xlink:href="#path-ihlnfzrxgs-3" x="0" y="0" stroke="#c3e31b"><animateMotion begin="-0.9392059427646745s" dur="21.01087059952817s" keyPoints="0;1" keyTimes="0;1" repeatCount="indefinite" calcMode="linear"><mpath xlink:href="#path11"/></animateMotion></use><path id="path12" d="M 1114.3780114781662 531.2668568332907 c 0 25.7733573199627 -6.306247003820659 7.402985613180775 -13.709232617001435 7.402985613180775 S 1086.9595462441634 557.0402141532534 1086.9595462441634 531.2668568332907 s 6.306247003820659 -7.402985613180775 13.709232617001435 -7.402985613180775 S 1114.3780114781662 505.493499513328 1114.3780114781662 531.2668568332907 z" fill="none" stroke="none"/><use xlink:href="#path-ihlnfzrxgs-1" x="0" y="0" stroke="#0a82ee"><animateMotion begin="-3.255270227707087s" dur="18.0360774623895s" keyPoints="1;0" keyTimes="0;1" repeatCount="indefinite" calcMode="linear"><mpath xlink:href="#path12"/></animateMotion></use><path id="path13" d="M 1272.949549467818 63.87380460941663 c 0 48.038742396673676 -11.754160373654194 13.79836217776797 -25.552522551422165 13.79836217776797 S 1221.8445043649735 111.9125470060903 1221.8445043649735 63.87380460941663 s 11.754160373654194 -13.79836217776797 25.552522551422165 -13.79836217776797 S 1272.949549467818 15.835062212742955 1272.949549467818 63.87380460941663 z" fill="none" stroke="none"/><use xlink:href="#path-ihlnfzrxgs-2" x="0" y="0" stroke="#0a82ee"><animateMotion begin="-6.368405738087363s" dur="20.239824778133446s" keyPoints="0;1" keyTimes="0;1" repeatCount="indefinite" calcMode="linear"><mpath xlink:href="#path13"/></animateMotion></use><path id="path14" d="M 1335.050808087988 322.7217231523841 c 0 50.48518140205109 -12.352757151565692 14.501062743142334 -26.853819894708025 14.501062743142334 S 1281.3431682985718 373.20690455443514 1281.3431682985718 322.7217231523841 s 12.352757151565692 -14.501062743142334 26.853819894708025 -14.501062743142334 S 1335.050808087988 272.236541750333 1335.050808087988 322.7217231523841 z" fill="none" stroke="none"/><use xlink:href="#path-ihlnfzrxgs-3" x="0" y="0" stroke="#0a82ee"><animateMotion begin="-5.475489599151979s" dur="17.59531750488135s" keyPoints="0;1" keyTimes="0;1" repeatCount="indefinite" calcMode="linear"><mpath xlink:href="#path14"/></animateMotion></use><path id="path15" d="M 1432.3551119341685 498.3455031515325 c 0 37.86986537947379 -9.266030890722309 10.877514523891408 -20.14354541461372 10.877514523891408 S 1392.068021104941 536.2153685310063 1392.068021104941 498.3455031515325 s 9.266030890722309 -10.877514523891408 20.14354541461372 -10.877514523891408 S 1432.3551119341685 460.47563777205875 1432.3551119341685 498.3455031515325 z" fill="none" stroke="none"/><use xlink:href="#path-ihlnfzrxgs-3" x="0" y="0" stroke="#bbddff"><animateMotion begin="-6.316140980512915s" dur="19.09786025782226s" keyPoints="0;1" keyTimes="0;1" repeatCount="indefinite" calcMode="linear"><mpath xlink:href="#path15"/></animateMotion></use><path id="path16" d="M 1545.104717462995 70.19684657854319 c 0 50.91442539268445 -12.457784936507895 14.624356229813618 -27.082141166321513 14.624356229813618 S 1490.9404351303522 121.11127197122764 1490.9404351303522 70.19684657854319 s 12.457784936507895 -14.624356229813618 27.082141166321513 -14.624356229813618 S 1545.104717462995 19.282421185858738 1545.104717462995 70.19684657854319 z" fill="none" stroke="none"/><use xlink:href="#path-ihlnfzrxgs-1" x="0" y="0" stroke="#bbddff"><animateMotion begin="-1.758121256763045s" dur="18.931264731174636s" keyPoints="0;1" keyTimes="0;1" repeatCount="indefinite" calcMode="linear"><mpath xlink:href="#path16"/></animateMotion></use><path id="path17" d="M 1638.6808927121951 263.3625853448641 c 0 40.2858231670874 -9.857169498329895 11.571459845865531 -21.42862934419543 11.571459845865531 S 1595.823634023804 303.6484085119515 1595.823634023804 263.3625853448641 s 9.857169498329895 -11.571459845865531 21.42862934419543 -11.571459845865531 S 1638.6808927121951 223.0767621777767 1638.6808927121951 263.3625853448641 z" fill="none" stroke="none"/><use xlink:href="#path-ihlnfzrxgs-2" x="0" y="0" stroke="#c3e31b"><animateMotion begin="-3.726900539707635s" dur="14.85316097157598s" keyPoints="0;1" keyTimes="0;1" repeatCount="indefinite" calcMode="linear"><mpath xlink:href="#path17"/></animateMotion></use></g></svg>
